<?xml version="1.0" standalone="no"?><!DOCTYPE svg PUBLIC "-//W3C//DTD SVG 1.1//EN" "http://www.w3.org/Graphics/SVG/1.1/DTD/svg11.dtd"><svg t="1784149117863" class="icon" viewBox="0 0 1024 1024" version="1.1" xmlns="http://www.w3.org/2000/svg" p-id="1480" xmlns:xlink="http://www.w3.org/1999/xlink" width="64" height="64"><path d="M300.39995227 78.59272919c18.55850066-15.07878178 51.83124114 10.43915662 73.14037672 5.96523236 18.59164084-4.04310192 23.66208834-14.08457639 45.40204626-28.40113405 17.56429527-11.03567986 44.40784087-6.36291451 54.54873588 5.03730732 10.17403518 11.40022183 29.16335819 22.43590169 29.16335818 22.43590169s6.03151271-0.99420539 21.67367756-15.67530502c15.84100592-15.07878178 30.15756357-23.39696691 56.13946449-14.11771658 26.0150411 10.04147446 30.15756357 32.47737616 56.93482883 31.51631095 26.77726525-0.99420539 36.95130043-19.15502389 60.2157066-10.04147447 26.81040542 11.00253968 15.84100592 43.08223369-5.07044749 56.27202522-25.05397589 15.64216485-36.18907629 32.84191813-49.47828837 50.27365269-13.48805315 17.39859437-35.22801107 40.7624211-35.22801109 40.7624211h-209.24709495s-26.0150411-25.68363931-39.33739337-45.79972843a199.07305979 199.07305979 0 0 0-48.68292405-47.19161596c-17.59743545-11.99674507-28.76567603-35.79139413-10.1740352-51.03587682z m436.7212888 324.27665888c-77.81314206-64.62335052-119.470348-125.89954288-119.47034802-125.89954288H389.38133491s-44.40784087 64.59021034-114.00221834 124.5407955c-80.59691715 69.59437748-144.92200606 180.01745642-120.89537575 311.68339058 21.73995792 117.74705867 135.14565303 251.36826343 349.72831694 251.36826344 207.88834759 0 329.74478853-110.38993875 352.81035365-245.36989089 28.76567603-165.70089876-53.58767067-260.81321467-119.90117034-316.32301575z m-128.28563583 298.52673922c19.95038821 0 27.77147063 11.03567986 28.76567602 24.35803212 0 13.35549245-9.21296997 26.51214381-22.70102313 26.51214379h-82.91672974v28.40113406c0 11.43336202-11.56592274 24.75571427-27.77147063 24.75571428-16.23868809 0-27.77147063-7.3571199-29.16335819-25.7167795v-27.44006884h-83.91093512c-13.48805315 0-23.66208834-15.67530501-22.66788296-26.51214379 0.99420539-11.40022183 11.13510039-23.39696691 22.66788296-23.39696691h83.91093512v-57.23309043s-68.06992921 0.99420539-80.56377698 0.9942054c-13.48805315 0-21.70681774-9.11354943-22.70102312-19.75154714 0-11.40022183 11.16824059-32.47737616 22.70102312-32.47737617h81.5248422v-20.67947216s-64.29194871-67.67224706-72.14617132-75.62589019c-7.42340027-7.72166189-16.63637024-24.35803212-5.0704475-37.4815433 11.53278256-13.35549245 32.84191813-4.07624211 42.61827115 5.96523235 11.16824059 11.03567986 62.96634153 63.62914512 62.96634155 63.62914513s60.24884679-55.50980109 73.17351688-65.55127556c12.49384777-10.04147446 29.13021801-11.00253968 38.50888888 0.9942054 10.17403518 11.00253968 6.0646529 21.4416963-9.1798298 35.75825396-15.24448269 14.11771658-74.53226427 73.67061959-74.53226426 73.67061959v18.35965957h77.87942242c17.56429527 0.99420539 27.73833045 19.71840695 27.73833045 30.75408682-0.99420539 11.40022183-7.42340027 21.4416963-26.77726525 21.4416963h-77.249759l-0.99420539 56.27202522h75.89101164z" fill="#2c2c2c" p-id="1481"></path></svg>